<svg xmlns="http://www.w3.org/2000/svg" viewBox="0 0 40 40">
  <path fill="#FFF" fill-rule="nonzero" d="M24.5545 19.9282c0-.766.168-1.4004.504-1.903.384-.5267.852-.9815 1.4041-1.3645.4801-.3351 1.1042-.5027 1.8722-.5027.7681 0 1.4042.1676 1.9082.5027.528.359.9841.8139 1.3682 1.3644.336.5027.504 1.137.504 1.903 0 .7661-.168 1.4004-.504 1.9031-.36.5267-.8161.9815-1.3682 1.3645-.504.3351-1.14.5027-1.9082.5027-.744 0-1.3681-.1676-1.8722-.5027-.552-.359-1.02-.8139-1.404-1.3645-.3361-.5027-.5041-1.137-.5041-1.903zm-16.7057 0c0-.766.168-1.4004.504-1.903.36-.5267.8281-.9815 1.4042-1.3645.48-.3351 1.104-.5027 1.8722-.5027.768 0 1.3921.1676 1.8722.5027.552.359 1.02.8139 1.404 1.3644.3361.5027.5041 1.137.5041 1.903 0 .7661-.168 1.4004-.504 1.9031-.36.5267-.828.9815-1.4041 1.3645-.4801.3351-1.1042.5027-1.8722.5027-.7681 0-1.3922-.1676-1.8722-.5027-.552-.359-1.0201-.8139-1.4042-1.3645-.336-.5027-.504-1.137-.504-1.903zm0-9.6948c0-.766.168-1.4004.504-1.903.384-.5267.8521-.9815 1.4042-1.3645.48-.3351 1.104-.5027 1.8722-.5027.768 0 1.4041.1676 1.9082.5027.528.359.984.8139 1.368 1.3644.3361.5027.5041 1.137.5041 1.903 0 .7661-.168 1.4005-.504 1.9031-.36.5267-.816.9815-1.3681 1.3645-.5041.3351-1.1402.5027-1.9082.5027-.7441 0-1.3682-.1676-1.8722-.5027-.552-.359-1.0201-.8139-1.4042-1.3645-.336-.5026-.504-1.137-.504-1.903zm16.7417 19.5332c0-.766.168-1.4004.504-1.903.36-.5267.816-.9815 1.3681-1.3645.5041-.3351 1.1402-.5027 1.9082-.5027.7441 0 1.3682.1676 1.8722.5027.552.359 1.0201.8139 1.4042 1.3645.336.5026.504 1.137.504 1.903 0 .742-.168 1.3645-.504 1.8672a5.5688 5.5688 0 0 1-1.4042 1.4003c-.48.3351-1.104.5027-1.8722.5027-.768 0-1.4041-.1676-1.9082-.5027-.528-.383-.984-.8498-1.368-1.4003-.3361-.4788-.5041-1.1012-.5041-1.8672zm-16.7417 0c0-.766.168-1.4004.504-1.903.384-.5267.8521-.9815 1.4042-1.3645.48-.3351 1.104-.5027 1.8722-.5027.768 0 1.4041.1676 1.9082.5027.528.359.984.8139 1.368 1.3645.3361.5026.5041 1.137.5041 1.903 0 .742-.168 1.3645-.504 1.8672-.36.5505-.816 1.0173-1.3681 1.4003-.5041.3351-1.1402.5027-1.9082.5027-.7441 0-1.3682-.1676-1.8722-.5027a5.5688 5.5688 0 0 1-1.4042-1.4003c-.336-.4788-.504-1.1012-.504-1.8672zm16.7417-19.5332c0-.766.168-1.4004.504-1.903.36-.5267.816-.9815 1.3681-1.3645.5041-.3351 1.1402-.5027 1.9082-.5027.7441 0 1.3682.1676 1.8722.5027.552.359 1.0201.8139 1.4042 1.3644.336.5027.504 1.137.504 1.903 0 .7661-.168 1.4005-.504 1.9031-.384.5267-.8521.9815-1.4042 1.3645-.48.3351-1.104.5027-1.8722.5027-.768 0-1.4041-.1676-1.9082-.5027-.528-.359-.984-.8139-1.368-1.3645-.3361-.5026-.5041-1.137-.5041-1.903zM0 40V0h40v40H0zm4.4284-4.4524h31.1072V4.4524H4.4284v31.0952z"/>
</svg>
