<svg xmlns="http://www.w3.org/2000/svg" viewBox="0 0 40 40">
  <path fill="#FFF" fill-rule="nonzero" d="M7.8488 11.5978c0-.766.168-1.4003.504-1.903.384-.5266.8521-.9815 1.4042-1.3645.48-.335 1.104-.5027 1.8722-.5027.768 0 1.4041.1676 1.9082.5027.528.3591.984.814 1.368 1.3645.3361.5027.5041 1.137.5041 1.903 0 .7421-.168 1.3645-.504 1.8672-.36.5506-.816 1.0173-1.3681 1.4003-.5041.3352-1.1402.5027-1.9082.5027-.7441 0-1.3682-.1675-1.8722-.5027a5.5688 5.5688 0 0 1-1.4042-1.4003c-.336-.4788-.504-1.1011-.504-1.8672zm16.7417 16.8044c0-.7421.168-1.3645.504-1.8672a4.6399 4.6399 0 0 1 1.3681-1.3644c.5041-.3352 1.1402-.5027 1.9082-.5027.7441 0 1.3682.1675 1.8722.5027.552.359 1.0201.8138 1.4042 1.3644.336.5027.504 1.125.504 1.8672 0 .766-.168 1.4003-.504 1.903-.384.5506-.8521 1.0054-1.4042 1.3645-.48.359-1.104.5386-1.8722.5386-.768 0-1.4041-.1796-1.9082-.5386-.528-.3591-.984-.814-1.368-1.3645-.3361-.5027-.5041-1.137-.5041-1.903zm-16.7417 0c0-.7421.168-1.3645.504-1.8672.384-.5506.8521-1.0054 1.4042-1.3644.48-.3352 1.104-.5027 1.8722-.5027.768 0 1.4041.1675 1.9082.5027.528.359.984.8138 1.368 1.3644.3361.5027.5041 1.125.5041 1.8672 0 .766-.168 1.4003-.504 1.903a4.6399 4.6399 0 0 1-1.3681 1.3645c-.5041.359-1.1402.5386-1.9082.5386-.7441 0-1.3682-.1796-1.8722-.5386-.552-.3591-1.0201-.814-1.4042-1.3645-.336-.5027-.504-1.137-.504-1.903zm16.7417-16.8044c0-.766.168-1.4003.504-1.903.36-.5266.816-.9815 1.3681-1.3645.5041-.335 1.1402-.5027 1.9082-.5027.7441 0 1.3682.1676 1.8722.5027.552.3591 1.0201.814 1.4042 1.3645.336.5027.504 1.137.504 1.903 0 .7421-.168 1.3645-.504 1.8672a5.5688 5.5688 0 0 1-1.4042 1.4003c-.48.3352-1.104.5027-1.8722.5027-.768 0-1.4041-.1675-1.9082-.5027-.528-.383-.984-.8497-1.368-1.4003-.3361-.4788-.5041-1.1011-.5041-1.8672zm-8.3889 8.3304c0-.742.168-1.3645.504-1.8672a5.5688 5.5688 0 0 1 1.4042-1.4003c.48-.3351 1.1041-.5027 1.8722-.5027.768 0 1.4041.1676 1.9082.5027.528.383.984.8498 1.3681 1.4003.336.4788.504 1.1012.504 1.8672s-.168 1.4003-.504 1.903c-.36.5267-.816.9815-1.3681 1.3645-.504.3351-1.1401.5027-1.9082.5027-.744 0-1.3681-.1676-1.8722-.5027-.552-.359-1.02-.8139-1.4041-1.3645-.336-.5027-.504-1.137-.504-1.903zM0 40V0h40v40H0zm4.4284-4.4524h31.1072V4.4524H4.4284v31.0952z"/>
</svg>
