<svg width="0" height="0" class="hidden">
  <symbol xmlns="http://www.w3.org/2000/svg" viewBox="0 0 40 40" id="dice4">
    <path  d="M7.849 11.598c0-.766.168-1.4.504-1.903A5.846 5.846 0 0 1 9.757 8.33c.48-.335 1.104-.502 1.872-.502s1.404.167 1.908.502c.528.36.984.814 1.368 1.365.336.502.504 1.137.504 1.903 0 .742-.168 1.364-.504 1.867a5.067 5.067 0 0 1-1.368 1.4c-.504.335-1.14.503-1.908.503-.744 0-1.368-.168-1.872-.503a5.569 5.569 0 0 1-1.404-1.4c-.336-.479-.504-1.101-.504-1.867zM24.59 28.402c0-.742.168-1.364.504-1.867a4.64 4.64 0 0 1 1.368-1.364c.504-.336 1.14-.503 1.908-.503.744 0 1.368.167 1.872.503a5.07 5.07 0 0 1 1.404 1.364c.336.503.504 1.125.504 1.867 0 .766-.168 1.4-.504 1.903a5.069 5.069 0 0 1-1.404 1.365c-.48.359-1.104.538-1.872.538s-1.404-.18-1.908-.538a5.29 5.29 0 0 1-1.368-1.365c-.336-.502-.504-1.137-.504-1.903zm-16.742 0c0-.742.168-1.364.504-1.867a5.067 5.067 0 0 1 1.404-1.364c.48-.336 1.104-.503 1.872-.503s1.404.167 1.908.503c.528.359.984.813 1.368 1.364.336.503.504 1.125.504 1.867 0 .766-.168 1.4-.504 1.903a4.64 4.64 0 0 1-1.368 1.365c-.504.359-1.14.538-1.908.538-.744 0-1.368-.18-1.872-.538a5.073 5.073 0 0 1-1.404-1.365c-.336-.502-.504-1.137-.504-1.903zM24.59 11.598c0-.766.168-1.4.504-1.903.36-.527.816-.982 1.368-1.365.504-.335 1.14-.502 1.908-.502.744 0 1.368.167 1.872.502.552.36 1.02.814 1.404 1.365.336.502.504 1.137.504 1.903 0 .742-.168 1.364-.504 1.867a5.569 5.569 0 0 1-1.404 1.4c-.48.335-1.104.503-1.872.503s-1.404-.168-1.908-.503a5.844 5.844 0 0 1-1.368-1.4c-.336-.479-.504-1.101-.504-1.867zm-8.39 8.33c0-.742.169-1.364.505-1.867a5.569 5.569 0 0 1 1.404-1.4c.48-.335 1.104-.503 1.872-.503s1.404.168 1.908.503c.528.383.984.85 1.368 1.4.336.479.504 1.101.504 1.867s-.168 1.4-.504 1.903c-.36.527-.816.982-1.368 1.365-.504.335-1.14.502-1.908.502-.744 0-1.368-.167-1.872-.502a5.07 5.07 0 0 1-1.404-1.365c-.336-.503-.504-1.137-.504-1.903zM0 40V0h40v40H0zm4.428-4.452h31.108V4.452H4.428v31.096z"></path>
  </symbol>
  <symbol xmlns="http://www.w3.org/2000/svg" viewBox="0 0 40 40" id="dice5">
    <path  d="M7.849 11.598c0-.766.168-1.4.504-1.903A5.069 5.069 0 0 1 9.757 8.33c.48-.359 1.104-.538 1.872-.538s1.404.18 1.908.538c.528.36.984.814 1.368 1.365.336.502.504 1.137.504 1.903 0 .742-.168 1.364-.504 1.867a4.64 4.64 0 0 1-1.368 1.364c-.504.336-1.14.503-1.908.503-.744 0-1.368-.167-1.872-.503a5.07 5.07 0 0 1-1.404-1.364c-.336-.503-.504-1.125-.504-1.867zM24.59 28.402c0-.742.168-1.364.504-1.867.36-.55.816-1.017 1.368-1.4.504-.336 1.14-.503 1.908-.503.744 0 1.368.167 1.872.503a5.569 5.569 0 0 1 1.404 1.4c.336.479.504 1.101.504 1.867s-.168 1.4-.504 1.903a5.846 5.846 0 0 1-1.404 1.365c-.48.335-1.104.502-1.872.502s-1.404-.167-1.908-.502a5.29 5.29 0 0 1-1.368-1.365c-.336-.503-.504-1.137-.504-1.903zm-16.742 0c0-.742.168-1.364.504-1.867a5.569 5.569 0 0 1 1.404-1.4c.48-.336 1.104-.503 1.872-.503s1.404.167 1.908.503c.528.383.984.85 1.368 1.4.336.479.504 1.101.504 1.867s-.168 1.4-.504 1.903c-.36.527-.816.982-1.368 1.365-.504.335-1.14.502-1.908.502-.744 0-1.368-.167-1.872-.502a5.073 5.073 0 0 1-1.404-1.365c-.336-.503-.504-1.137-.504-1.903zM24.59 11.598c0-.766.168-1.4.504-1.903a4.64 4.64 0 0 1 1.368-1.365c.504-.359 1.14-.538 1.908-.538.744 0 1.368.18 1.872.538.552.36 1.02.814 1.404 1.365.336.502.504 1.137.504 1.903 0 .742-.168 1.364-.504 1.867a5.067 5.067 0 0 1-1.404 1.364c-.48.336-1.104.503-1.872.503s-1.404-.167-1.908-.503a5.286 5.286 0 0 1-1.368-1.364c-.336-.503-.504-1.125-.504-1.867zM0 40V0h40v40H0zm4.428-4.452h31.108V4.452H4.428v31.096z"></path>
  </symbol>
  <symbol xmlns="http://www.w3.org/2000/svg" viewBox="0 0 40 40" id="dice6">
    <path  d="M24.555 19.928c0-.766.168-1.4.504-1.903a5.844 5.844 0 0 1 1.404-1.364c.48-.335 1.104-.503 1.872-.503s1.404.168 1.908.503a5.29 5.29 0 0 1 1.368 1.364c.336.503.504 1.137.504 1.903s-.168 1.4-.504 1.903c-.36.527-.816.982-1.368 1.365-.504.335-1.14.502-1.908.502-.744 0-1.368-.167-1.872-.502a5.068 5.068 0 0 1-1.404-1.365c-.337-.503-.505-1.137-.505-1.903zm-16.706 0c0-.766.168-1.4.504-1.903.36-.526.828-.981 1.404-1.364.48-.335 1.104-.503 1.872-.503s1.392.168 1.872.503a5.07 5.07 0 0 1 1.404 1.364c.336.503.504 1.137.504 1.903s-.168 1.4-.504 1.903c-.36.527-.828.982-1.404 1.365-.48.335-1.104.502-1.872.502s-1.392-.167-1.872-.502a5.07 5.07 0 0 1-1.404-1.365c-.336-.503-.504-1.137-.504-1.903zm0-9.695c0-.766.168-1.4.504-1.903a5.844 5.844 0 0 1 1.404-1.364c.48-.335 1.104-.503 1.872-.503s1.404.168 1.908.503c.528.359.984.814 1.368 1.364.336.503.504 1.137.504 1.903s-.168 1.4-.504 1.903c-.36.527-.816.982-1.368 1.365-.504.335-1.14.503-1.908.503-.744 0-1.368-.168-1.872-.503a5.07 5.07 0 0 1-1.404-1.365c-.336-.502-.504-1.137-.504-1.903zM24.59 29.767c0-.766.168-1.4.504-1.903.36-.527.816-.982 1.368-1.365.504-.335 1.14-.503 1.908-.503.744 0 1.368.168 1.872.503a5.07 5.07 0 0 1 1.404 1.365c.336.502.504 1.137.504 1.903 0 .742-.168 1.364-.504 1.867a5.569 5.569 0 0 1-1.404 1.4c-.48.335-1.104.503-1.872.503s-1.404-.168-1.908-.503a5.846 5.846 0 0 1-1.368-1.4c-.336-.479-.504-1.101-.504-1.867zm-16.742 0c0-.766.168-1.4.504-1.903a5.844 5.844 0 0 1 1.404-1.365c.48-.335 1.104-.503 1.872-.503s1.404.168 1.908.503c.528.36.984.814 1.368 1.365.336.502.504 1.137.504 1.903 0 .742-.168 1.364-.504 1.867a5.068 5.068 0 0 1-1.368 1.4c-.504.335-1.14.503-1.908.503-.744 0-1.368-.168-1.872-.503a5.569 5.569 0 0 1-1.404-1.4c-.336-.479-.504-1.101-.504-1.867zM24.59 10.233c0-.766.168-1.4.504-1.903.36-.526.816-.981 1.368-1.364.504-.335 1.14-.503 1.908-.503.744 0 1.368.168 1.872.503.552.359 1.02.814 1.404 1.364.336.503.504 1.137.504 1.903s-.168 1.4-.504 1.903a5.844 5.844 0 0 1-1.404 1.365c-.48.335-1.104.503-1.872.503s-1.404-.168-1.908-.503a5.287 5.287 0 0 1-1.368-1.365c-.336-.502-.504-1.137-.504-1.903zM0 40V0h40v40H0zm4.428-4.452h31.108V4.452H4.428v31.096z"></path>
  </symbol>
  <symbol xmlns="http://www.w3.org/2000/svg" viewBox="0 0 130 154" id="dice-logo">
    <defs>
      <linearGradient id="a" x1="50%" x2="50%" y1="0%" y2="100%">
        <stop offset="0%" stop-color="#FFBF00"></stop>
        <stop offset="100%" stop-color="#FF00BE"></stop>
      </linearGradient>
    </defs>
    <g fill="none">
      <path fill="url(#a)" d="M61.492 122.984c33.96 0 61.492-27.531 61.492-61.492S95.453 0 61.492 0 0 27.53 0 61.492s27.53 61.492 61.492 61.492zm0-7.115c-30.032 0-54.377-24.346-54.377-54.377 0-30.032 24.345-54.377 54.377-54.377s54.377 24.345 54.377 54.377-24.346 54.377-54.377 54.377zm5.517-64.443L73.74 27.95l27.39 7.852-7.875 27.458-20.202-5.791 10.382 10.38-33.288 33.281-33.376-33.37 33.287-33.282L67.01 51.426zm6.515-2.438c.146-.509.384-.903.713-1.182a3.619 3.619 0 0 1 1.23-.661c.395-.136.855-.129 1.381.022s.928.39 1.208.72c.29.35.513.752.668 1.205.13.411.123.871-.023 1.38-.15.527-.39.93-.72 1.208a3.31 3.31 0 0 1-1.205.668c-.416.148-.887.146-1.413-.005-.51-.146-.901-.392-1.176-.737a3.618 3.618 0 0 1-.692-1.212c-.131-.411-.122-.88.03-1.405zm14.772-8.249c.151-.525.391-.928.72-1.207a3.77 3.77 0 0 1 1.205-.668c.412-.131.88-.121 1.406.03.51.146.904.383 1.183.712.307.355.538.76.693 1.212.131.411.121.88-.03 1.406-.146.51-.383.903-.712 1.183a3.972 3.972 0 0 1-1.237.685c-.395.136-.855.129-1.381-.022s-.929-.39-1.208-.72a4.168 4.168 0 0 1-.661-1.23c-.136-.394-.129-.855.022-1.38zm-18.52 12.483l21.3 6.107 6.122-21.346-21.3-6.106-6.123 21.345zM32.98 70.905c-.64-.639-1.029-1.308-1.169-2.007a6.889 6.889 0 0 1 .03-2.307c.12-.679.5-1.338 1.139-1.977.64-.639 1.308-1.028 2.007-1.168a6.233 6.233 0 0 1 2.277 0c.7.14 1.369.53 2.008 1.168.62.62.999 1.278 1.138 1.977.16.76.17 1.528.03 2.307-.14.7-.529 1.368-1.168 2.007-.62.62-1.278.999-1.978 1.139a6.564 6.564 0 0 1-2.337 0c-.679-.12-1.338-.5-1.977-1.139zm27.955.09c-.62-.619-1-1.278-1.139-1.977a5.466 5.466 0 0 1 0-2.277c.14-.699.53-1.368 1.169-2.007.619-.619 1.278-.998 1.977-1.138a5.974 5.974 0 0 1 2.307-.03c.7.14 1.358.52 1.978 1.138.639.64 1.028 1.308 1.168 2.007.14.78.13 1.548-.03 2.307-.1.699-.47 1.368-1.109 2.007-.639.64-1.318 1.019-2.037 1.138-.739.14-1.498.14-2.277 0-.7-.14-1.368-.529-2.007-1.168zm-13.933 13.93c-.619-.62-.999-1.278-1.138-1.977a5.972 5.972 0 0 1 .03-2.307c.12-.679.499-1.338 1.138-1.977.64-.64 1.309-1.029 2.008-1.168a6.233 6.233 0 0 1 2.277 0c.699.14 1.358.519 1.977 1.138.64.639 1.029 1.308 1.169 2.007a5.466 5.466 0 0 1 0 2.277c-.12.719-.5 1.398-1.139 2.037-.619.619-1.288.988-2.007 1.108-.76.16-1.528.17-2.307.03-.7-.14-1.369-.53-2.008-1.168zm-.09-27.95c-.639-.639-1.028-1.308-1.168-2.007a6.23 6.23 0 0 1 0-2.276c.14-.7.53-1.368 1.168-2.007.62-.62 1.279-.999 1.978-1.139a5.974 5.974 0 0 1 2.307-.03c.699.14 1.368.53 2.007 1.169.62.619 1 1.278 1.139 1.977a6.56 6.56 0 0 1 0 2.336c-.12.68-.5 1.338-1.139 1.978-.639.639-1.308 1.028-2.007 1.168a6.88 6.88 0 0 1-2.307-.03c-.68-.12-1.338-.5-1.978-1.138zm-.03 13.93c-.619-.619-.998-1.278-1.138-1.977a6.56 6.56 0 0 1 0-2.336c.12-.68.5-1.338 1.138-1.977.64-.64 1.309-1.03 2.008-1.169a6.89 6.89 0 0 1 2.307.03c.679.12 1.338.5 1.977 1.138.64.64 1.03 1.308 1.169 2.007.14.74.14 1.498 0 2.277-.14.7-.53 1.368-1.169 2.007-.619.62-1.278.999-1.977 1.139-.76.16-1.528.17-2.307.03-.7-.14-1.369-.53-2.008-1.169zm3.236 22.827L76.005 67.85 50.058 41.908 24.171 67.79l25.947 25.942z"
        transform="translate(.508 .508)"></path>
      <path  d="M24.323 146.206c0 2.432-.667 4.306-2 5.621-1.335 1.316-3.21 1.974-5.626 1.974H12v-14.572h5.025c2.33 0 4.129.598 5.397 1.794 1.267 1.196 1.901 2.924 1.901 5.183zm-4.071.14c0-1.336-.263-2.326-.79-2.97-.526-.645-1.325-.967-2.398-.967h-1.142v8.162h.874c1.192 0 2.066-.347 2.622-1.041.556-.695.834-1.756.834-3.185zm6.673 7.455v-14.572h3.942v14.572h-3.942zm13.545-11.552c-.934 0-1.662.384-2.185 1.151-.523.768-.785 1.826-.785 3.175 0 2.804 1.063 4.206 3.188 4.206a6.49 6.49 0 0 0 1.867-.27 18.632 18.632 0 0 0 1.817-.647v3.329c-1.212.538-2.582.807-4.111.807-2.191 0-3.871-.638-5.04-1.914-1.168-1.275-1.752-3.12-1.752-5.531 0-1.509.283-2.834.849-3.977.566-1.143 1.38-2.022 2.443-2.636 1.062-.615 2.312-.922 3.748-.922a10.3 10.3 0 0 1 4.499 1.026l-1.202 3.1a13.48 13.48 0 0 0-1.609-.638 5.601 5.601 0 0 0-1.727-.259zm15.351 11.552h-8.619v-14.572h8.62v3.16h-4.698v2.292h4.35v3.16h-4.35v2.75h4.697v3.21zm14.23 0H66.13v-11.353h-3.545v-3.219h11.002v3.22h-3.535V153.8zm18.788-7.306c0 2.452-.6 4.316-1.797 5.591-1.199 1.276-2.953 1.914-5.264 1.914-2.277 0-4.023-.641-5.238-1.924-1.214-1.282-1.822-3.15-1.822-5.6 0-2.426.604-4.278 1.813-5.557 1.208-1.28 2.964-1.919 5.267-1.919 2.31 0 4.062.634 5.253 1.904 1.192 1.269 1.788 3.132 1.788 5.591zm-9.99 0c0 2.817.977 4.226 2.93 4.226.993 0 1.73-.342 2.209-1.027.48-.684.72-1.75.72-3.199 0-1.455-.243-2.53-.73-3.224-.486-.695-1.213-1.042-2.18-1.042-1.966 0-2.949 1.422-2.949 4.266zm22.105 2.88c0 .904-.229 1.706-.686 2.407-.456.701-1.115 1.246-1.976 1.635-.86.389-1.87.583-3.028.583-.967 0-1.778-.068-2.433-.204a9.011 9.011 0 0 1-2.046-.713v-3.508c.748.385 1.526.686 2.334.902.807.216 1.549.324 2.224.324.583 0 1.01-.102 1.281-.304.272-.203.407-.464.407-.783 0-.2-.054-.373-.164-.523-.109-.15-.284-.3-.526-.454-.242-.152-.885-.464-1.931-.936-.947-.432-1.657-.85-2.13-1.256a3.854 3.854 0 0 1-1.053-1.395c-.228-.525-.342-1.147-.342-1.864 0-1.342.486-2.389 1.46-3.14.972-.75 2.31-1.126 4.01-1.126 1.504 0 3.036.349 4.599 1.046l-1.202 3.04c-1.357-.624-2.529-.937-3.515-.937-.51 0-.88.09-1.112.27-.232.179-.348.402-.348.667 0 .286.147.542.442.768.295.226 1.094.638 2.398 1.236 1.251.564 2.12 1.17 2.607 1.819.486.647.73 1.463.73 2.446zm11.737 0c0 .904-.228 1.706-.685 2.407-.457.701-1.116 1.246-1.976 1.635-.861.389-1.87.583-3.029.583-.967 0-1.777-.068-2.433-.204a9.013 9.013 0 0 1-2.045-.713v-3.508a11.69 11.69 0 0 0 2.333.902c.808.216 1.55.324 2.224.324.583 0 1.01-.102 1.281-.304.272-.203.408-.464.408-.783 0-.2-.055-.373-.164-.523-.11-.15-.285-.3-.527-.454-.241-.152-.885-.464-1.931-.936-.947-.432-1.657-.85-2.13-1.256a3.854 3.854 0 0 1-1.053-1.395c-.228-.525-.342-1.147-.342-1.864 0-1.342.486-2.389 1.46-3.14.973-.75 2.31-1.126 4.011-1.126 1.503 0 3.036.349 4.598 1.046l-1.202 3.04c-1.357-.624-2.528-.937-3.515-.937-.51 0-.88.09-1.112.27-.232.179-.348.402-.348.667 0 .286.148.542.442.768.295.226 1.094.638 2.398 1.236 1.252.564 2.12 1.17 2.607 1.819.487.647.73 1.463.73 2.446zm7.478-2.96h-.854v-6.408h-2.155v-.778h5.184v.778h-2.175v6.408zm5.958 0l-2.194-6.07h-.06l.04 2.004v4.066h-.814v-7.186h1.24l2.195 6.04 2.225-6.04H130v7.186h-.854v-3.966l.04-2.064h-.07l-2.254 6.03h-.735z"></path>
    </g>
  </symbol>
  <symbol xmlns="http://www.w3.org/2000/svg" viewBox="0 0 40 40" id="dice1">
    <path d="M16.202 19.928c0-.742.168-1.364.504-1.867a5.569 5.569 0 0 1 1.404-1.4c.48-.335 1.104-.503 1.872-.503s1.404.168 1.908.503c.528.383.984.85 1.368 1.4.336.479.504 1.101.504 1.867s-.168 1.4-.504 1.903c-.36.527-.816.982-1.368 1.365-.504.335-1.14.502-1.908.502-.744 0-1.368-.167-1.872-.502a5.07 5.07 0 0 1-1.404-1.365c-.336-.503-.504-1.137-.504-1.903zM0 40V0h40v40H0zm4.428-4.452h31.108V4.452H4.428v31.096z"></path>
  </symbol>
  <symbol xmlns="http://www.w3.org/2000/svg" viewBox="0 0 40 40" id="dice2">
    <path d="M7.849 28.402c0-.742.168-1.364.504-1.867a5.067 5.067 0 0 1 1.404-1.364c.48-.336 1.104-.503 1.872-.503s1.404.167 1.908.503c.528.359.984.813 1.368 1.364.336.503.504 1.125.504 1.867 0 .766-.168 1.4-.504 1.903a4.64 4.64 0 0 1-1.368 1.365c-.504.359-1.14.538-1.908.538-.744 0-1.368-.18-1.872-.538a5.073 5.073 0 0 1-1.404-1.365c-.336-.502-.504-1.137-.504-1.903zM24.59 11.598c0-.766.168-1.4.504-1.903.36-.527.816-.982 1.368-1.365.504-.335 1.14-.502 1.908-.502.744 0 1.368.167 1.872.502.552.36 1.02.814 1.404 1.365.336.502.504 1.137.504 1.903 0 .742-.168 1.364-.504 1.867a5.569 5.569 0 0 1-1.404 1.4c-.48.335-1.104.503-1.872.503s-1.404-.168-1.908-.503a5.844 5.844 0 0 1-1.368-1.4c-.336-.479-.504-1.101-.504-1.867zM0 40V0h40v40H0zm4.428-4.452h31.108V4.452H4.428v31.096z"></path>
  </symbol>
  <symbol xmlns="http://www.w3.org/2000/svg" viewBox="0 0 40 40" id="dice3">
    <path  d="M7.849 28.402c0-.742.168-1.364.504-1.867a5.067 5.067 0 0 1 1.404-1.364c.48-.336 1.104-.503 1.872-.503s1.404.167 1.908.503c.528.359.984.813 1.368 1.364.336.503.504 1.125.504 1.867 0 .766-.168 1.4-.504 1.903a4.64 4.64 0 0 1-1.368 1.365c-.504.359-1.14.538-1.908.538-.744 0-1.368-.18-1.872-.538a5.073 5.073 0 0 1-1.404-1.365c-.336-.502-.504-1.137-.504-1.903zm8.353-8.474c0-.742.168-1.364.504-1.867a5.569 5.569 0 0 1 1.404-1.4c.48-.335 1.104-.503 1.872-.503s1.404.168 1.908.503c.528.383.984.85 1.368 1.4.336.479.504 1.101.504 1.867s-.168 1.4-.504 1.903c-.36.527-.816.982-1.368 1.365-.504.335-1.14.502-1.908.502-.744 0-1.368-.167-1.872-.502a5.07 5.07 0 0 1-1.404-1.365c-.336-.503-.504-1.137-.504-1.903zm8.388-8.33c0-.766.168-1.4.504-1.903.36-.527.816-.982 1.369-1.365.504-.335 1.14-.502 1.908-.502.744 0 1.368.167 1.872.502.552.36 1.02.814 1.404 1.365.336.503.504 1.137.504 1.903 0 .742-.168 1.364-.504 1.867a5.569 5.569 0 0 1-1.404 1.4c-.48.336-1.104.503-1.872.503s-1.404-.167-1.908-.503a5.844 5.844 0 0 1-1.368-1.4c-.336-.479-.504-1.101-.504-1.867zM0 40V0h40v40H0zm4.428-4.452h31.108V4.452H4.428v31.096z"></path>
  </symbol>
</svg>