<svg xmlns="http://www.w3.org/2000/svg" viewBox="0 0 40 40">
  <path  fill-rule="nonzero" d="M16.2016 19.9282c0-.742.168-1.3645.504-1.8672a5.5688 5.5688 0 0 1 1.4042-1.4003c.48-.3351 1.1041-.5027 1.8722-.5027.768 0 1.4041.1676 1.9082.5027.528.383.984.8498 1.3681 1.4003.336.4788.504 1.1012.504 1.8672s-.168 1.4003-.504 1.903c-.36.5267-.816.9815-1.3681 1.3645-.504.3351-1.1401.5027-1.9082.5027-.744 0-1.3681-.1676-1.8722-.5027-.552-.359-1.02-.8139-1.4041-1.3645-.336-.5027-.504-1.137-.504-1.903zM0 40V0h40v40H0zm4.4284-4.4524h31.1072V4.4524H4.4284v31.0952z"/>
</svg>
