<svg xmlns="http://www.w3.org/2000/svg" viewBox="0 0 130 154">
  <defs>
    <linearGradient id="a" x1="50%" x2="50%" y1="0%" y2="100%">
      <stop offset="0%" stop-color="#FFBF00"/>
      <stop offset="100%" stop-color="#FF00BE"/>
    </linearGradient>
  </defs>
  <g fill="none" fill-rule="nonzero">
    <path fill="url(#a)" d="M61.4918 122.9836c33.961 0 61.4918-27.5308 61.4918-61.4918S95.4528 0 61.4918 0 0 27.5308 0 61.4918s27.5308 61.4918 61.4918 61.4918zm0-7.1147c-30.0316 0-54.377-24.3455-54.377-54.3771 0-30.0316 24.3454-54.377 54.377-54.377s54.377 24.3454 54.377 54.377-24.3454 54.377-54.377 54.377zm5.5171-64.4432l6.7326-23.4749 27.3896 7.8524-7.875 27.4583-20.202-5.7917 10.382 10.3799-33.2879 33.2814-33.3777-33.3713 33.2878-33.2814L67.009 51.4257zm6.5153-2.4372c.146-.5094.3836-.9036.7127-1.1828.3714-.3025.7814-.5228 1.2301-.661.3947-.1358.855-.1283 1.381.0225.5259.1508.9284.3907 1.2076.7197.2909.3501.5136.7518.6682 1.2052.1311.411.1236.8712-.0225 1.3806-.1508.5259-.3907.9284-.7198 1.2075-.355.3072-.7567.53-1.2054.668-.4159.1476-.8867.146-1.4127-.0048-.5095-.1461-.9015-.3919-1.176-.7373-.3072-.3549-.5382-.759-.6928-1.2123-.131-.411-.1212-.8795.0296-1.4053zm14.772-8.249c.1509-.5258.3908-.9282.7199-1.2073.3502-.2909.752-.5136 1.2054-.6681.4111-.1311.8797-.1213 1.4056.0295.5095.146.9038.3836 1.183.7126.3073.3549.5383.759.6928 1.2123.1312.411.1213.8795-.0295 1.4053-.146.5094-.3837.9037-.7127 1.1828a3.9724 3.9724 0 0 1-1.2372.6856c-.3947.1359-.855.1284-1.381-.0224-.5259-.1508-.9284-.3907-1.2076-.7197-.2862-.3666-.5065-.7765-.6611-1.2299-.1358-.3946-.1284-.8548.0225-1.3806zM69.7755 53.2222l21.3003 6.1066 6.1219-21.3455-21.3003-6.1066-6.122 21.3455zM32.98 70.9052c-.6392-.639-1.0287-1.308-1.1686-2.007-.1198-.759-.1098-1.5278.03-2.3067.1199-.679.4994-1.338 1.1386-1.977.6392-.6392 1.3083-1.0286 2.0074-1.1684.739-.1398 1.4981-.1398 2.2771 0 .6992.1398 1.3683.5292 2.0075 1.1683.6192.6191.9987 1.2781 1.1385 1.9771.1598.759.1698 1.5278.03 2.3067-.1398.699-.5293 1.368-1.1685 2.007-.6192.6191-1.2784.9986-1.9775 1.1384a6.564 6.564 0 0 1-2.337 0c-.6792-.1199-1.3383-.4993-1.9775-1.1384zm27.9546.0899c-.6193-.6191-.9988-1.2781-1.1386-1.9771a5.466 5.466 0 0 1 0-2.2767c.1398-.699.5293-1.368 1.1685-2.007.6192-.6192 1.2784-.9986 1.9775-1.1384.759-.1598 1.528-.1698 2.307-.03.6992.1398 1.3584.5193 1.9776 1.1384.6392.639 1.0287 1.308 1.1685 2.007.1398.779.1298 1.5478-.03 2.3067-.0998.699-.4694 1.368-1.1086 2.007-.6391.6391-1.3183 1.0186-2.0374 1.1384-.739.1398-1.498.1398-2.277 0-.6992-.1398-1.3684-.5292-2.0075-1.1683zM47.0022 84.9248c-.6192-.6191-.9987-1.2781-1.1386-1.9771-.1398-.7789-.1298-1.5478.03-2.3067.1199-.679.4994-1.338 1.1386-1.977.6392-.6392 1.3083-1.0286 2.0074-1.1684.739-.1398 1.4981-.1398 2.2771 0 .6992.1398 1.3583.5193 1.9775 1.1384.6392.639 1.0287 1.308 1.1686 2.007a5.466 5.466 0 0 1 0 2.2767c-.1199.719-.4994 1.398-1.1386 2.037-.6192.6191-1.2884.9886-2.0075 1.1084-.759.1598-1.528.1698-2.307.03-.6992-.1398-1.3683-.5292-2.0075-1.1683zm-.0899-27.9492c-.6392-.6391-1.0287-1.3081-1.1685-2.0071-.1398-.739-.1398-1.4978 0-2.2767.1398-.699.5293-1.368 1.1685-2.007.6192-.6192 1.2784-.9986 1.9775-1.1384.759-.1598 1.528-.1698 2.307-.03.6992.1398 1.3684.5293 2.0075 1.1683.6193.6191.9988 1.2782 1.1386 1.9771a6.5602 6.5602 0 0 1 0 2.3366c-.1198.679-.4994 1.338-1.1386 1.9772-.6391.639-1.3083 1.0285-2.0074 1.1682-.759.1199-1.528.1099-2.307-.03-.6792-.1197-1.3384-.4992-1.9776-1.1382zm-.03 13.9296c-.6192-.619-.9987-1.2781-1.1385-1.977a6.5602 6.5602 0 0 1 0-2.3367c.1198-.679.4994-1.338 1.1386-1.977.6391-.6392 1.3083-1.0286 2.0074-1.1684.759-.1198 1.528-.1098 2.307.03.6792.1198 1.3384.4992 1.9776 1.1383.6392.639 1.0287 1.3081 1.1685 2.007.1398.739.1398 1.4979 0 2.2768-.1398.699-.5293 1.368-1.1685 2.007-.6192.6191-1.2784.9986-1.9775 1.1384-.759.1597-1.528.1697-2.307.03-.6992-.1399-1.3684-.5293-2.0075-1.1684zm3.236 22.8267l25.8872-25.8822-25.9472-25.9422-25.8872 25.8823 25.9472 25.9421z" transform="translate(.5082 .5082)"/>
    <path fill="#FFF" d="M24.3232 146.206c0 2.4319-.667 4.3056-2.0009 5.6212-1.334 1.3157-3.209 1.9735-5.6254 1.9735H12v-14.5715h5.0246c2.3303 0 4.1293.598 5.397 1.794 1.2678 1.196 1.9016 2.9236 1.9016 5.1828zm-4.0713.1395c0-1.3355-.2632-2.3256-.7895-2.97-.5262-.6446-1.3256-.9669-2.398-.9669h-1.142v8.1628h.8738c1.1916 0 2.0655-.3471 2.6216-1.0415.556-.6944.834-1.7558.834-3.1844zm6.673 7.4552v-14.5715h3.9422v14.5715H26.925zm13.5446-11.5515c-.9334 0-1.6616.3837-2.1846 1.1511-.523.7675-.7845 1.8256-.7845 3.1745 0 2.804 1.0625 4.206 3.1876 4.206.6421 0 1.2644-.0898 1.8668-.2692a18.6317 18.6317 0 0 0 1.8172-.6478v3.3289c-1.2115.5382-2.5818.8073-4.111.8073-2.1913 0-3.871-.6379-5.0395-1.9136-1.1685-1.2758-1.7527-3.1196-1.7527-5.5316 0-1.5083.283-2.8339.849-3.9767.566-1.1429 1.3803-2.0216 2.4428-2.6362 1.0625-.6147 2.312-.922 3.7486-.922 1.569 0 3.0684.3422 4.4983 1.0266l-1.2015 3.0997c-.5362-.2525-1.0724-.4651-1.6087-.6379-.5362-.1728-1.1121-.2591-1.7278-.2591zm15.3519 11.5515H47.202v-14.5715h8.6193v3.1595h-4.697v2.2924h4.3494v3.1594h-4.3493v2.7509h4.6969v3.2093zm14.2298 0h-3.9224v-11.3522h-3.545v-3.2193h11.0025v3.2193h-3.5351v11.3522zm18.7877-7.3057c0 2.4519-.5991 4.3156-1.7974 5.5914C85.8433 153.362 84.089 154 81.7785 154c-2.2772 0-4.0232-.6412-5.238-1.9236-1.2148-1.2824-1.8222-3.1495-1.8222-5.6013 0-2.4253.604-4.2774 1.8123-5.5565 1.2081-1.279 2.964-1.9186 5.2679-1.9186 2.3104 0 4.0613.6345 5.253 1.9037 1.1916 1.269 1.7874 3.1328 1.7874 5.5913zm-9.9897 0c0 2.8173.9765 4.226 2.9294 4.226.993 0 1.7295-.3423 2.2094-1.0266.48-.6844.72-1.7509.72-3.1994 0-1.4551-.2433-2.5299-.7299-3.2242-.4866-.6944-1.2131-1.0416-2.1796-1.0416-1.9662 0-2.9493 1.422-2.9493 4.2658zm22.1044 2.8804c0 .9037-.2284 1.706-.6852 2.407-.4568.701-1.1155 1.2458-1.9761 1.6345-.8606.3887-1.8702.5831-3.0287.5831-.9665 0-1.7775-.0681-2.4328-.2043-.6554-.1362-1.3373-.3738-2.0456-.7126v-3.5083c.748.3853 1.5259.686 2.3335.902.8077.2159 1.5491.3239 2.2244.3239.5825 0 1.0095-.1014 1.281-.304.2714-.2027.407-.4635.407-.7824 0-.1994-.0545-.3738-.1638-.5233-.1092-.1495-.2846-.3006-.5263-.4535-.2416-.1528-.8854-.465-1.9314-.9368-.9466-.432-1.6566-.8505-2.13-1.2558-.4733-.4054-.8242-.8705-1.0525-1.3954-.2284-.525-.3426-1.1462-.3426-1.8638 0-1.3422.4865-2.3887 1.4597-3.1395.9731-.7509 2.3104-1.1263 4.0117-1.1263 1.5028 0 3.0353.3489 4.5977 1.0465l-1.2016 3.04c-1.3571-.6247-2.5288-.937-3.5152-.937-.5098 0-.8805.0897-1.1122.2691-.2317.1794-.3475.402-.3475.6678 0 .2857.1472.5415.4418.7675.2946.2259 1.094.6378 2.3982 1.2358 1.2511.5648 2.12 1.1711 2.6066 1.819.4866.6478.7299 1.4634.7299 2.4468zm11.7373 0c0 .9037-.2284 1.706-.6852 2.407-.4568.701-1.1155 1.2458-1.976 1.6345-.8607.3887-1.8702.5831-3.0287.5831-.9666 0-1.7775-.0681-2.4329-.2043-.6554-.1362-1.3372-.3738-2.0456-.7126v-3.5083c.748.3853 1.526.686 2.3336.902.8076.2159 1.549.3239 2.2243.3239.5826 0 1.0096-.1014 1.281-.304.2714-.2027.4071-.4635.4071-.7824 0-.1994-.0546-.3738-.1638-.5233-.1093-.1495-.2847-.3006-.5263-.4535-.2417-.1528-.8854-.465-1.9314-.9368-.9467-.432-1.6567-.8505-2.13-1.2558-.4734-.4054-.8242-.8705-1.0526-1.3954-.2284-.525-.3426-1.1462-.3426-1.8638 0-1.3422.4866-2.3887 1.4597-3.1395.9732-.7509 2.3104-1.1263 4.0118-1.1263 1.5027 0 3.0353.3489 4.5976 1.0465l-1.2015 3.04c-1.3572-.6247-2.5289-.937-3.5153-.937-.5097 0-.8805.0897-1.1122.2691-.2317.1794-.3475.402-.3475.6678 0 .2857.1473.5415.4419.7675.2946.2259 1.094.6378 2.398 1.2358 1.2513.5648 2.1202 1.1711 2.6067 1.819.4866.6478.7299 1.4634.7299 2.4468zm7.4783-2.9601h-.854v-6.4087h-2.1548v-.7774h5.1835v.7774h-2.1747v6.4087zm5.958 0l-2.1945-6.0698h-.0596l.0398 2.0033v4.0665h-.8143v-7.186h1.2413l2.1945 6.0398 2.2243-6.0399H130v7.186h-.854v-3.9667l.0397-2.0631h-.0695l-2.2541 6.0299h-.7348z"/>
  </g>
</svg>
