<svg xmlns="http://www.w3.org/2000/svg" viewBox="0 0 13 22">
  <path fill="#FFF" fill-rule="nonzero" d="M.6406 10.2031l9.0937-9.0937c.2188-.2187.4844-.3281.797-.3281.3124 0 .578.1094.7968.3281l1.0312 1.0313c.2188.2187.336.4843.3516.7968.0156.3125-.086.5782-.3047.797L5.1406 11l7.2656 7.2656c.2188.2188.3203.4844.3047.7969-.0156.3125-.1328.5781-.3516.7969l-1.0312 1.0312c-.2188.2188-.4844.3281-.7969.3281-.3125 0-.5781-.1093-.7969-.328L.6406 11.7968c-.25-.2188-.375-.4844-.375-.7969 0-.3125.125-.5781.375-.7969z"/>
</svg>
